<svg xmlns="http://www.w3.org/2000/svg" version="1.1" xmlns:xlink="http://www.w3.org/1999/xlink"
    xmlns:svgjs="http://svgjs.dev/svgjs" width="1000" height="623" viewBox="0 0 1000 623">
    <g transform="matrix(1,0,0,1,-0.6060606060606233,0.2522267206477409)"><svg viewBox="0 0 396 247"
            data-background-color="#ffffff" preserveAspectRatio="xMidYMid meet" height="623" width="1000"
            xmlns="http://www.w3.org/2000/svg" xmlns:xlink="http://www.w3.org/1999/xlink">
            <g id="tight-bounds" transform="matrix(1,0,0,1,0.2400000000000091,-0.09999999999999432)"><svg
                    viewBox="0 0 395.52 247.2" height="247.2" width="395.52">
                    <g><svg></svg></g>
                    <g><svg viewBox="0 0 395.52 247.2" height="247.2" width="395.52">
                            <g transform="matrix(1,0,0,1,39.55199999999999,101.62793423709257)"><svg
                                    viewBox="0 0 316.416 43.94413152581483" height="43.94413152581483" width="316.416">
                                    <g><svg viewBox="0 0 316.416 43.94413152581483" height="43.94413152581483"
                                            width="316.416">
                                            <g><svg viewBox="0 0 316.416 43.94413152581483" height="43.94413152581483"
                                                    width="316.416">
                                                    <g><svg viewBox="0 0 316.416 43.94413152581483"
                                                            height="43.94413152581483" width="316.416">
                                                            <g><svg viewBox="0 0 316.416 43.94413152581483"
                                                                    height="43.94413152581483" width="316.416">
                                                                    <g><svg viewBox="0 0 316.416 43.94413152581483"
                                                                            height="43.94413152581483" width="316.416">
                                                                            <g transform="matrix(1,0,0,1,0,0)"><svg
                                                                                    width="316.416"
                                                                                    viewBox="1 -39.099998474121094 346.6700134277344 48.14999771118164"
                                                                                    height="43.94413152581483"
                                                                                    data-palette-color="#ba3b0a">
                                                                                    <path
                                                                                        d="M11.4-26.4L11.4-26.4 11.4 4.1Q11.4 6.45 12.6 7.23 13.8 8 15.9 8L15.9 8 15.9 9.05Q14.6 9 12.33 8.93 10.05 8.85 7.5 8.85L7.5 8.85Q5.65 8.85 3.88 8.93 2.1 9 1.2 9.05L1.2 9.05 1.2 8Q2.85 8 3.53 7.3 4.2 6.6 4.2 4.6L4.2 4.6 4.2-20.4Q4.2-22.65 3.5-23.73 2.8-24.8 1-24.8L1-24.8 1-25.85Q2.6-25.7 4.1-25.7L4.1-25.7Q6.15-25.7 8-25.88 9.85-26.05 11.4-26.4ZM19.15-26.55L19.15-26.55Q22.95-26.55 25.53-23.45 28.1-20.35 28.1-14.1L28.1-14.1Q28.1-9.25 26.65-5.95 25.2-2.65 22.63-0.98 20.05 0.7 16.5 0.7L16.5 0.7Q14.55 0.7 12.95 0.03 11.35-0.65 10.5-1.9L10.5-1.9 11-2.55Q11.5-1.65 12.43-1.15 13.35-0.65 14.55-0.65L14.55-0.65Q16.8-0.65 18.1-2.18 19.4-3.7 19.98-6.48 20.55-9.25 20.55-13.1L20.55-13.1Q20.55-17.4 20-19.85 19.45-22.3 18.5-23.35 17.55-24.4 16.2-24.4L16.2-24.4Q14.4-24.4 12.93-23 11.45-21.6 11.25-19L11.25-19 11-20.75Q11.9-23.6 14.08-25.08 16.25-26.55 19.15-26.55ZM41.35-39.1L41.35-39.1 41.35-21.9Q42.6-24.5 44.72-25.53 46.85-26.55 49.5-26.55L49.5-26.55Q51.65-26.55 52.95-26.03 54.25-25.5 55-24.6L55-24.6Q55.85-23.65 56.22-22.15 56.6-20.65 56.6-18.1L56.6-18.1 56.6-4.65Q56.6-2.55 57.32-1.8 58.05-1.05 59.8-1.05L59.8-1.05 59.8 0Q58.85-0.05 56.92-0.13 55-0.2 53.2-0.2L53.2-0.2Q51.25-0.2 49.42-0.13 47.6-0.05 46.7 0L46.7 0 46.7-1.05Q48.2-1.05 48.8-1.8 49.4-2.55 49.4-4.65L49.4-4.65 49.4-20.2Q49.4-21.45 49.15-22.38 48.9-23.3 48.22-23.83 47.55-24.35 46.3-24.35L46.3-24.35Q44.25-24.35 42.8-22.75 41.35-21.15 41.35-18.6L41.35-18.6 41.35-4.65Q41.35-2.55 41.95-1.8 42.55-1.05 44.05-1.05L44.05-1.05 44.05 0Q43.15-0.05 41.4-0.13 39.65-0.2 37.85-0.2L37.85-0.2Q35.9-0.2 33.92-0.13 31.95-0.05 30.95 0L30.95 0 30.95-1.05Q32.7-1.05 33.42-1.8 34.15-2.55 34.15-4.65L34.15-4.65 34.15-33.1Q34.15-35.35 33.47-36.43 32.8-37.5 30.95-37.5L30.95-37.5 30.95-38.55Q32.55-38.4 34.05-38.4L34.05-38.4Q36.1-38.4 37.95-38.58 39.8-38.75 41.35-39.1ZM74.5-26.55L74.5-26.55Q78.9-26.55 81.4-23.95 83.9-21.35 83.9-15.45L83.9-15.45 67.45-15.45 67.34-16.4 77.59-16.4Q77.65-18.85 77.3-20.93 76.95-23 76.2-24.25 75.45-25.5 74.2-25.5L74.2-25.5Q72.45-25.5 71.22-23.3 70-21.1 69.75-16L69.75-16 69.9-15.7Q69.84-15.1 69.82-14.45 69.8-13.8 69.8-13.1L69.8-13.1Q69.8-9.65 70.77-7.5 71.75-5.35 73.25-4.38 74.75-3.4 76.3-3.4L76.3-3.4Q77.8-3.4 79.57-4.15 81.34-4.9 82.9-7.4L82.9-7.4 83.8-7.1Q83.2-5.2 81.9-3.4 80.59-1.6 78.59-0.45 76.59 0.7 73.8 0.7L73.8 0.7Q70.4 0.7 67.8-0.75 65.2-2.2 63.72-5.15 62.25-8.1 62.25-12.65L62.25-12.65Q62.25-17.3 63.82-20.4 65.4-23.5 68.17-25.03 70.95-26.55 74.5-26.55ZM99.69-26.55L99.69-26.55Q103.34-26.55 106.09-25.2 108.84-23.85 110.39-20.85 111.94-17.85 111.94-12.9L111.94-12.9Q111.94-7.95 110.39-4.98 108.84-2 106.09-0.65 103.34 0.7 99.69 0.7L99.69 0.7Q96.14 0.7 93.37-0.65 90.59-2 89.02-4.98 87.44-7.95 87.44-12.9L87.44-12.9Q87.44-17.85 89.02-20.85 90.59-23.85 93.37-25.2 96.14-26.55 99.69-26.55ZM99.69-25.55L99.69-25.55Q97.69-25.55 96.34-22.58 94.99-19.6 94.99-12.9L94.99-12.9Q94.99-6.2 96.34-3.25 97.69-0.3 99.69-0.3L99.69-0.3Q101.74-0.3 103.07-3.25 104.39-6.2 104.39-12.9L104.39-12.9Q104.39-19.6 103.07-22.58 101.74-25.55 99.69-25.55ZM133.64-26.55L133.64-26.55Q135.74-26.55 137.06-26.03 138.39-25.5 139.14-24.6L139.14-24.6Q139.94-23.65 140.31-22.15 140.69-20.65 140.69-18.1L140.69-18.1 140.69-4.65Q140.69-2.55 141.42-1.8 142.14-1.05 143.89-1.05L143.89-1.05 143.89 0Q142.94-0.05 141.04-0.13 139.14-0.2 137.29-0.2L137.29-0.2Q135.39-0.2 133.56-0.13 131.74-0.05 130.79 0L130.79 0 130.79-1.05Q132.29-1.05 132.89-1.8 133.49-2.55 133.49-4.65L133.49-4.65 133.49-20.2Q133.49-21.45 133.24-22.38 132.99-23.3 132.34-23.83 131.69-24.35 130.39-24.35L130.39-24.35Q128.29-24.35 126.87-22.7 125.44-21.05 125.44-18.55L125.44-18.55 125.44-4.65Q125.44-2.55 126.06-1.8 126.69-1.05 128.14-1.05L128.14-1.05 128.14 0Q127.24-0.05 125.52-0.13 123.79-0.2 121.94-0.2L121.94-0.2Q120.04-0.2 118.04-0.13 116.04-0.05 115.04 0L115.04 0 115.04-1.05Q116.79-1.05 117.52-1.8 118.24-2.55 118.24-4.65L118.24-4.65 118.24-20.4Q118.24-22.65 117.56-23.73 116.89-24.8 115.04-24.8L115.04-24.8 115.04-25.85Q116.64-25.7 118.14-25.7L118.14-25.7Q120.24-25.7 122.06-25.88 123.89-26.05 125.44-26.4L125.44-26.4 125.44-21.9Q126.69-24.45 128.84-25.5 130.99-26.55 133.64-26.55ZM152.24-38.75L152.24-38.75Q154.34-38.75 155.56-37.73 156.79-36.7 156.79-34.9L156.79-34.9Q156.79-33.1 155.56-32.08 154.34-31.05 152.24-31.05L152.24-31.05Q150.14-31.05 148.91-32.08 147.69-33.1 147.69-34.9L147.69-34.9Q147.69-36.7 148.91-37.73 150.14-38.75 152.24-38.75ZM156.14-26.4L156.14-26.4 156.14-4.65Q156.14-2.55 156.86-1.8 157.59-1.05 159.34-1.05L159.34-1.05 159.34 0Q158.44-0.05 156.54-0.13 154.64-0.2 152.69-0.2L152.69-0.2Q150.74-0.2 148.74-0.13 146.74-0.05 145.74 0L145.74 0 145.74-1.05Q147.49-1.05 148.21-1.8 148.94-2.55 148.94-4.65L148.94-4.65 148.94-20.4Q148.94-22.65 148.26-23.73 147.59-24.8 145.74-24.8L145.74-24.8 145.74-25.85Q147.34-25.7 148.84-25.7L148.84-25.7Q150.94-25.7 152.76-25.88 154.59-26.05 156.14-26.4ZM172.59-25.85L172.59-25.85 172.59-24.8Q171.59-24.8 171.11-24.35 170.64-23.9 171.14-23.1L171.14-23.1 184.29-3.55Q184.89-2.65 185.56-1.93 186.24-1.2 187.09-1.05L187.09-1.05 187.09 0Q186.34-0.05 184.81-0.13 183.29-0.2 181.74-0.2L181.74-0.2Q179.94-0.2 178.04-0.13 176.14-0.05 175.24 0L175.24 0 175.24-1.05Q176.24-1.05 176.71-1.5 177.19-1.95 176.69-2.75L176.69-2.75 163.54-22.3Q162.69-23.55 162.11-24.13 161.54-24.7 160.74-24.8L160.74-24.8 160.74-25.85Q161.59-25.8 163.29-25.73 164.99-25.65 166.69-25.65L166.69-25.65Q168.34-25.65 170.04-25.73 171.74-25.8 172.59-25.85ZM165.54-4.85L171.44-12.05Q171.44-12.05 171.59-11.45 171.74-10.85 171.74-10.85L171.74-10.85 169.74-8.3Q168.24-6.35 168.09-4.73 167.94-3.1 168.94-2.13 169.94-1.15 171.69-1L171.69-1 171.69 0Q170.74-0.05 169.36-0.08 167.99-0.1 166.69-0.13 165.39-0.15 164.49-0.15L164.49-0.15Q162.44-0.15 160.99 0L160.99 0 160.99-1Q162.14-1.45 163.19-2.33 164.24-3.2 165.54-4.85L165.54-4.85ZM185.64-25.85L185.64-25.85 185.64-24.85Q184.59-24.55 183.44-23.55 182.29-22.55 181.04-21L181.04-21 175.54-14.1Q175.54-14.1 175.39-14.68 175.24-15.25 175.24-15.25L175.24-15.25 177.74-18.6Q179.79-21.2 179.44-22.93 179.09-24.65 176.44-24.85L176.44-24.85 176.44-25.85Q177.89-25.8 179.39-25.75 180.89-25.7 182.09-25.7L182.09-25.7Q184.19-25.7 185.64-25.85ZM216.48-26.55L216.48-26.55Q220.38-26.55 222.96-23.38 225.53-20.2 225.53-13.6L225.53-13.6Q225.53-8.4 223.96-5.25 222.38-2.1 219.78-0.7 217.18 0.7 214.08 0.7L214.08 0.7Q212.03 0.7 210.28 0 208.53-0.7 207.28-2.3L207.28-2.3 207.98-2.55Q208.88-1.45 210.11-0.9 211.33-0.35 212.53-0.35L212.53-0.35Q215.28-0.35 216.63-3.45 217.98-6.55 217.98-12.9L217.98-12.9Q217.98-17.2 217.46-19.73 216.93-22.25 215.93-23.33 214.93-24.4 213.53-24.4L213.53-24.4Q211.78-24.4 210.33-22.98 208.88-21.55 208.68-19L208.68-19 208.43-20.75Q209.33-23.6 211.48-25.08 213.63-26.55 216.48-26.55ZM208.83-39.1L208.83-39.1 208.83-1Q207.58-1.2 206.28-1 204.98-0.8 203.88-0.33 202.78 0.15 202.03 0.8L202.03 0.8 201.28 0.35Q201.48-0.35 201.56-1.05 201.63-1.75 201.63-2.45L201.63-2.45 201.63-33.1Q201.63-35.35 200.96-36.43 200.28-37.5 198.43-37.5L198.43-37.5 198.43-38.55Q200.03-38.4 201.53-38.4L201.53-38.4Q203.58-38.4 205.43-38.58 207.28-38.75 208.83-39.1ZM245.83-26.55L245.83-26.55Q247.43-26.55 248.43-25.88 249.43-25.2 249.9-24.15 250.38-23.1 250.38-21.95L250.38-21.95Q250.38-20.1 249.3-18.93 248.23-17.75 246.48-17.75L246.48-17.75Q244.73-17.75 243.75-18.63 242.78-19.5 242.78-20.95L242.78-20.95Q242.78-22.35 243.4-23.28 244.03-24.2 244.98-24.85L244.98-24.85Q244.28-25.05 243.58-24.8L243.58-24.8Q242.28-24.6 241.25-23.58 240.23-22.55 239.63-21.15 239.03-19.75 239.03-18.4L239.03-18.4 239.03-5.15Q239.03-2.75 240.2-1.9 241.38-1.05 243.73-1.05L243.73-1.05 243.73 0Q242.58-0.05 240.38-0.13 238.18-0.2 235.78-0.2L235.78-0.2Q233.78-0.2 231.73-0.13 229.68-0.05 228.63 0L228.63 0 228.63-1.05Q230.38-1.05 231.1-1.8 231.83-2.55 231.83-4.65L231.83-4.65 231.83-20.4Q231.83-22.65 231.15-23.73 230.48-24.8 228.63-24.8L228.63-24.8 228.63-25.85Q230.23-25.7 231.73-25.7L231.73-25.7Q233.83-25.7 235.65-25.88 237.48-26.05 239.03-26.4L239.03-26.4 239.03-21.75Q239.63-23.1 240.63-24.2 241.63-25.3 242.93-25.93 244.23-26.55 245.83-26.55ZM264.18-26.55L264.18-26.55Q268.58-26.55 271.08-23.95 273.58-21.35 273.58-15.45L273.58-15.45 257.13-15.45 257.03-16.4 267.28-16.4Q267.33-18.85 266.98-20.93 266.63-23 265.88-24.25 265.13-25.5 263.88-25.5L263.88-25.5Q262.13-25.5 260.9-23.3 259.68-21.1 259.43-16L259.43-16 259.58-15.7Q259.53-15.1 259.5-14.45 259.48-13.8 259.48-13.1L259.48-13.1Q259.48-9.65 260.45-7.5 261.43-5.35 262.93-4.38 264.43-3.4 265.98-3.4L265.98-3.4Q267.48-3.4 269.25-4.15 271.03-4.9 272.58-7.4L272.58-7.4 273.48-7.1Q272.88-5.2 271.58-3.4 270.28-1.6 268.28-0.45 266.28 0.7 263.48 0.7L263.48 0.7Q260.08 0.7 257.48-0.75 254.88-2.2 253.4-5.15 251.93-8.1 251.93-12.65L251.93-12.65Q251.93-17.3 253.5-20.4 255.08-23.5 257.85-25.03 260.63-26.55 264.18-26.55ZM289.37-26.55L289.37-26.55Q293.77-26.55 296.27-23.95 298.77-21.35 298.77-15.45L298.77-15.45 282.32-15.45 282.22-16.4 292.47-16.4Q292.52-18.85 292.17-20.93 291.82-23 291.07-24.25 290.32-25.5 289.07-25.5L289.07-25.5Q287.32-25.5 286.1-23.3 284.87-21.1 284.62-16L284.62-16 284.77-15.7Q284.72-15.1 284.7-14.45 284.67-13.8 284.67-13.1L284.67-13.1Q284.67-9.65 285.65-7.5 286.62-5.35 288.12-4.38 289.62-3.4 291.17-3.4L291.17-3.4Q292.67-3.4 294.45-4.15 296.22-4.9 297.77-7.4L297.77-7.4 298.67-7.1Q298.07-5.2 296.77-3.4 295.47-1.6 293.47-0.45 291.47 0.7 288.67 0.7L288.67 0.7Q285.27 0.7 282.67-0.75 280.07-2.2 278.6-5.15 277.12-8.1 277.12-12.65L277.12-12.65Q277.12-17.3 278.7-20.4 280.27-23.5 283.05-25.03 285.82-26.55 289.37-26.55ZM322.67-26.1L322.67-26.1 310.17-0.75 312.77-0.75Q314.72-0.75 316.45-1.58 318.17-2.4 319.35-4.35 320.52-6.3 320.77-9.7L320.77-9.7 321.82-9.7Q321.82-6.05 321.87-3.73 321.92-1.4 322.02 0.2L322.02 0.2Q319.77 0.1 317.32 0.05 314.87 0 312.42 0L312.42 0Q309.87 0 307.17 0.08 304.47 0.15 302.02 0.25L302.02 0.25 314.52-25.1 311.72-25.1Q309.72-25.1 308.05-24.28 306.37-23.45 305.3-21.48 304.22-19.5 303.92-16.15L303.92-16.15 302.87-16.15Q302.87-19.85 302.82-22.15 302.77-24.45 302.67-26.05L302.67-26.05Q304.97-25.95 307.42-25.9 309.87-25.85 312.27-25.85L312.27-25.85Q314.87-25.85 317.55-25.93 320.22-26 322.67-26.1ZM338.27-26.55L338.27-26.55Q342.67-26.55 345.17-23.95 347.67-21.35 347.67-15.45L347.67-15.45 331.22-15.45 331.12-16.4 341.37-16.4Q341.42-18.85 341.07-20.93 340.72-23 339.97-24.25 339.22-25.5 337.97-25.5L337.97-25.5Q336.22-25.5 334.99-23.3 333.77-21.1 333.52-16L333.52-16 333.67-15.7Q333.62-15.1 333.59-14.45 333.57-13.8 333.57-13.1L333.57-13.1Q333.57-9.65 334.54-7.5 335.52-5.35 337.02-4.38 338.52-3.4 340.07-3.4L340.07-3.4Q341.57-3.4 343.34-4.15 345.12-4.9 346.67-7.4L346.67-7.4 347.57-7.1Q346.97-5.2 345.67-3.4 344.37-1.6 342.37-0.45 340.37 0.7 337.57 0.7L337.57 0.7Q334.17 0.7 331.57-0.75 328.97-2.2 327.49-5.15 326.02-8.1 326.02-12.65L326.02-12.65Q326.02-17.3 327.59-20.4 329.17-23.5 331.94-25.03 334.72-26.55 338.27-26.55Z"
                                                                                        opacity="1"
                                                                                        transform="matrix(1,0,0,1,0,0)"
                                                                                        fill="#ba3b0a"
                                                                                        class="undefined-text-0"
                                                                                        data-fill-palette-color="primary"
                                                                                        id="text-0"></path>
                                                                                </svg></g>
                                                                        </svg></g>
                                                                </svg></g>
                                                        </svg></g>
                                                </svg></g>
                                        </svg></g>
                                </svg></g>
                            <g mask="url(#ccdebd73-11c0-4122-bde8-04e5d2e1b721)">
                                <g
                                    transform="matrix(100.73849654815731, 0, 0, 100.73849654815731, 56.791075732879875, 1)">
                                    <svg xmlns="http://www.w3.org/2000/svg" xmlns:xlink="http://www.w3.org/1999/xlink"
                                        version="1.1" x="0" y="0"
                                        viewBox="1.1005959510803223 1.281968593597412 2.7987101078033447 2.4340248107910156"
                                        enable-background="new 0 0 5 5" xml:space="preserve" height="2.4340248107910156"
                                        width="2.7987101078033447" class="icon-none" data-fill-palette-color="accent"
                                        id="none">
                                        <path fill="#e8772e"
                                            d="M3.801 1.283C3.603 1.305 3.403 1.344 3.213 1.387 3.021 1.428 2.822 1.478 2.639 1.538 2.256 1.662 1.888 1.825 1.547 2.044c-0.119 0.082-0.24 0.171-0.354 0.267-0.028 0.021 0 0.057 0.028 0.035 0.163-0.12 0.34-0.22 0.51-0.312C1.909 1.938 2.094 1.86 2.277 1.79c0.376-0.139 0.758-0.234 1.147-0.284 0.063-0.007 0.12-0.015 0.185-0.021C3.603 1.491 3.595 1.502 3.588 1.51 3.573 1.523 3.56 1.538 3.553 1.549c0 0-0.008 0.011-0.015 0.014C3.531 1.569 3.524 1.577 3.517 1.58 3.488 1.608 3.46 1.634 3.432 1.658c-0.057 0.05-0.113 0.093-0.176 0.135-0.008 0-0.008 0.004-0.008 0.004C3.241 1.801 3.234 1.808 3.228 1.812c-0.021 0.01-0.036 0.021-0.05 0.031-0.036 0.018-0.071 0.036-0.1 0.054C2.937 1.964 2.794 2.02 2.653 2.069 2.639 2.076 2.625 2.08 2.61 2.087c-0.014 0-0.014 0.003-0.014 0.003s0 0-0.007 0.004C2.582 2.098 2.568 2.098 2.561 2.101 2.525 2.115 2.483 2.126 2.454 2.14 2.377 2.165 2.299 2.187 2.228 2.211c-0.05 0.018-0.1 0.057-0.093 0.113 0.008 0.057 0.058 0.078 0.106 0.071 0.362-0.046 0.73-0.028 1.091 0.046C3.318 2.445 3.318 2.449 3.312 2.449 3.297 2.456 3.282 2.463 3.263 2.467c0 0 0 0.003-0.007 0.003C3.248 2.474 3.234 2.478 3.234 2.48 3.092 2.523 2.95 2.548 2.809 2.562c-0.015 0-0.028 0.003-0.028 0.003s-0.015 0-0.021 0c-0.021 0.004-0.036 0.004-0.05 0.004-0.041 0.003-0.07 0.007-0.112 0.007-0.071 0.004-0.143 0.007-0.22 0.004-0.107 0-0.206 0-0.318-0.011C2.044 2.564 2.03 2.564 2.016 2.562 1.909 2.556 1.859 2.728 1.987 2.742 2.001 2.746 2.016 2.749 2.03 2.749 2.044 2.753 2.065 2.756 2.087 2.76c0.041 0.011 0.084 0.025 0.126 0.039 0.086 0.032 0.156 0.074 0.241 0.128 0.071 0.046 0.143 0.103 0.199 0.159C2.682 3.111 2.702 3.135 2.723 3.16 2.582 3.167 2.44 3.163 2.299 3.146 2.101 3.118 1.916 3.044 1.746 2.938 1.71 2.916 1.661 2.923 1.633 2.948c-0.029 0.024-0.058 0.07-0.029 0.106C1.675 3.191 1.76 3.334 1.803 3.486c0.014 0.011 0.014 0.021 0.014 0.032 0 0 0 0.007 0 0.011 0-0.004-0.014-0.008-0.028-0.011 0-0.004-0.014-0.008-0.021-0.011C1.76 3.504 1.76 3.5 1.746 3.5l0 0V3.497C1.64 3.447 1.534 3.384 1.435 3.323 1.378 3.287 1.321 3.252 1.257 3.217c-0.092-0.057-0.22 0.092-0.12 0.152 0.12 0.071 0.241 0.146 0.362 0.213 0.084 0.046 0.176 0.1 0.269 0.123 0.092 0.025 0.185 0.011 0.233-0.08 0.043-0.082 0-0.188-0.035-0.267-0.014-0.043-0.035-0.081-0.05-0.124 0.1 0.043 0.212 0.071 0.325 0.089 0.213 0.031 0.44 0.021 0.666 0C2.95 3.315 3.014 3.241 2.985 3.191 2.887 3.019 2.737 2.881 2.568 2.771c0-0.004-0.008-0.004-0.015-0.007C2.646 2.76 2.73 2.753 2.822 2.742c0.143-0.015 0.291-0.039 0.434-0.085 0.119-0.039 0.247-0.093 0.347-0.184 0.007 0 0.014-0.004 0.014-0.007 0.028-0.025 0.043-0.054 0.043-0.089C3.651 2.346 3.631 2.317 3.603 2.307 3.354 2.243 3.106 2.2 2.851 2.189 2.95 2.15 3.05 2.111 3.135 2.062c0.297-0.147 0.566-0.356 0.743-0.638C3.928 1.351 3.885 1.272 3.801 1.283z"
                                            data-fill-palette-color="accent"></path>
                                    </svg></g>
                            </g>
                        </svg></g>
                    <defs>
                        <mask id="e2518127-f95d-493e-9ab8-553ea6dfa14a">
                            <rect width="640" height="400" fill="white"></rect>
                            <rect width="348.05760000000004" height="207.89698231329902" fill="black"
                                x="145.97119999999998" y="96.05150884335049" id="transform-me"
                                transform="matrix(1,0,0,1,-122.24000000000001,-76.4)"></rect>
                        </mask>
                        <mask id="42ea3a91-b94f-47e8-8fd0-c917dabfb828">
                            <rect width="640" height="400" fill="white"></rect>
                            <rect width="348.05760000000004" height="63.763665484636256" fill="black"
                                x="145.97119999999998" y="168.11816725768188" id="transform-me"
                                transform="matrix(1,0,0,1,-122.24000000000001,-76.4)"></rect>
                        </mask>
                        <mask id="6219f2f6-1d35-4910-a43b-c51b2611d47e">
                            <rect width="640" height="400" fill="white"></rect>
                            <rect width="348.05760000000004" height="38.32732936419809" fill="black"
                                x="145.97119999999998" y="180.83633531790096" id="transform-me"
                                transform="matrix(1,0,0,1,-122.24000000000001,-76.4)"></rect>
                        </mask>
                        <mask id="f5fcb7c8-76ef-4997-ae8f-47ae84a84095">
                            <rect width="640" height="400" fill="white"></rect>
                            <rect width="348.05760000000004" height="51.62003452550077" fill="black"
                                x="145.97119999999998" y="174.1899827372496" id="transform-me"
                                transform="matrix(1,0,0,1,-122.24000000000001,-76.4)"></rect>
                        </mask>
                        <mask id="44603ae8-794d-4d02-8c85-591aa6df2a28">
                            <rect width="640" height="400" fill="white"></rect>
                            <rect width="348.05760000000004" height="63.763665484636256" fill="black"
                                x="145.97119999999998" y="168.11816725768188" id="transform-me"
                                transform="matrix(1,0,0,1,-122.24000000000001,-76.4)"></rect>
                        </mask>
                        <mask id="7873e4df-43c7-4e1c-a7f7-82df01e1fbac">
                            <rect width="640" height="400" fill="white"></rect>
                            <rect width="348.05760000000004" height="51.62003452550077" fill="black"
                                x="145.97119999999998" y="174.1899827372496" id="transform-me"
                                transform="matrix(1,0,0,1,-122.24000000000001,-76.4)"></rect>
                        </mask>
                        <mask id="73a8fb28-3ea4-44ab-9222-8072fadf8299">
                            <rect width="640" height="400" fill="white"></rect>
                            <rect width="348.05760000000004" height="38.32732936419809" fill="black"
                                x="145.97119999999998" y="180.83633531790096" id="transform-me"
                                transform="matrix(1,0,0,1,-122.24000000000001,-76.4)"></rect>
                        </mask>
                        <mask id="cfc826bc-af42-4733-8c66-bfffb8819875">
                            <rect width="640" height="400" fill="white"></rect>
                            <rect width="348.05760000000004" height="51.62003452550077" fill="black"
                                x="145.97119999999998" y="174.1899827372496" id="transform-me"
                                transform="matrix(1,0,0,1,-122.24000000000001,-76.4)"></rect>
                        </mask>
                        <mask id="cfe16ce2-8e02-4809-8f45-12084fe74ee3">
                            <rect width="640" height="400" fill="white"></rect>
                            <rect width="348.05760000000004" height="63.763665484636256" fill="black"
                                x="145.97119999999998" y="168.11816725768188" id="transform-me"
                                transform="matrix(1,0,0,1,-122.24000000000001,-76.4)"></rect>
                        </mask>
                        <mask id="e05d9f86-3832-4a2a-b639-a4b160dab9d1">
                            <rect width="640" height="400" fill="white"></rect>
                            <rect width="348.05760000000004" height="66.16225123495624" fill="black"
                                x="145.97119999999998" y="166.9188743825219" id="transform-me"
                                transform="matrix(1,0,0,1,-122.24000000000001,-76.4)"></rect>
                        </mask>
                        <mask id="ccdebd73-11c0-4122-bde8-04e5d2e1b721">
                            <rect width="640" height="400" fill="white"></rect>
                            <rect width="348.05760000000004" height="64.69244111399135" fill="black"
                                x="145.97119999999998" y="167.65377944300434" id="transform-me"
                                transform="matrix(1,0,0,1,-122.24000000000001,-76.4)"></rect>
                        </mask>
                    </defs>
                </svg>
                <rect width="395.52" height="247.2" fill="none" stroke="none" visibility="hidden"></rect>
            </g>
        </svg></g>
</svg>